<?xml version="1.0" standalone="no"?>
<!DOCTYPE svg PUBLIC "-//W3C//DTD SVG 20010904//EN"
 "http://www.w3.org/TR/2001/REC-SVG-20010904/DTD/svg10.dtd">
<svg version="1.0" xmlns="http://www.w3.org/2000/svg"
 width="512.000000pt" height="512.000000pt" viewBox="0 0 512.000000 512.000000"
 preserveAspectRatio="xMidYMid meet">
<metadata>
Created by potrace 1.11, written by Peter Selinger 2001-2013
</metadata>
<g transform="translate(0.000000,512.000000) scale(0.100000,-0.100000)"
fill="#000000" stroke="none">
<path d="M107 5013 l-108 -106 106 -106 105 -105 107 107 107 107 -105 105
-105 105 -107 -107z"/>
<path d="M4801 5014 l-104 -104 49 -53 c27 -28 75 -76 107 -106 l57 -54 105
104 105 105 -79 80 c-43 43 -92 91 -107 106 l-29 27 -104 -105z"/>
<path d="M2474 4968 c-49 -79 -93 -151 -99 -161 -8 -14 -254 -406 -277 -441
-5 -8 -160 63 -203 94 -5 4 -64 36 -130 70 -66 35 -142 75 -170 90 -27 15
-107 57 -177 94 l-128 68 -1 -39 c-1 -21 -2 -65 -4 -98 -5 -123 -15 -396 -21
-575 -3 -102 -7 -186 -8 -187 -1 -2 -137 -7 -466 -19 -91 -3 -210 -7 -265 -9
-55 -2 -117 -4 -138 -4 l-38 -1 72 -137 c40 -76 84 -160 99 -188 39 -71 169
-315 232 -435 18 -35 18 -35 -4 -52 -13 -9 -34 -23 -48 -30 -14 -7 -43 -25
-65 -39 -22 -14 -67 -43 -100 -64 -33 -21 -76 -48 -95 -60 -19 -13 -102 -64
-185 -115 -210 -130 -245 -152 -245 -160 0 -5 142 -98 248 -161 48 -29 497
-311 501 -315 2 -2 -7 -25 -21 -51 -14 -27 -50 -95 -81 -153 -31 -58 -114
-215 -186 -350 -71 -134 -129 -246 -127 -247 3 -4 212 -12 691 -28 105 -4 193
-10 197 -13 7 -7 11 -74 24 -462 4 -113 8 -227 9 -255 2 -27 3 -81 4 -118 l1
-69 128 68 c125 66 220 116 337 179 33 18 110 58 170 90 61 32 119 64 130 71
11 8 23 14 27 14 5 0 178 -269 241 -375 7 -11 28 -44 48 -75 19 -30 39 -62 42
-70 4 -8 40 -68 81 -133 l74 -118 43 68 c24 37 50 80 59 94 15 26 359 574 372
593 5 8 13 8 25 0 10 -6 86 -46 168 -89 83 -43 164 -85 180 -95 17 -9 68 -38
115 -62 47 -25 138 -73 203 -107 l117 -63 1 29 c1 40 6 162 13 348 3 88 9 237
12 330 4 94 7 176 7 183 0 7 17 12 46 13 25 0 78 2 116 4 39 2 158 6 265 9
271 9 474 17 477 19 2 3 -26 58 -81 162 -27 50 -67 124 -89 165 -22 41 -54
102 -72 135 -112 208 -175 327 -175 331 0 2 411 262 458 289 89 52 302 188
302 194 0 7 -198 134 -366 236 -154 93 -384 241 -384 247 0 4 29 60 64 125 34
65 92 172 127 238 34 66 100 190 145 275 46 85 81 156 80 158 -3 3 -104 7
-391 17 -82 3 -222 8 -310 11 -88 4 -168 6 -177 6 -13 -1 -18 7 -19 26 0 41
-7 250 -13 417 -4 83 -9 220 -11 305 -3 85 -7 155 -8 156 -3 3 -58 -25 -212
-108 -77 -41 -189 -101 -250 -133 -60 -32 -159 -84 -218 -117 -59 -32 -109
-58 -112 -58 -2 0 -41 60 -86 133 -45 72 -97 155 -114 182 -18 28 -88 139
-156 248 -67 108 -126 197 -129 197 -4 0 -47 -64 -96 -142z"/>
<path d="M543 4602 c-48 -48 -94 -95 -102 -105 -12 -15 -3 -28 90 -122 l104
-104 107 106 107 107 -102 103 c-56 56 -105 103 -109 103 -4 0 -46 -40 -95
-88z"/>
<path d="M4378 742 l-107 -107 105 -104 104 -105 27 25 c52 47 183 181 183
188 0 3 -47 52 -103 108 l-103 102 -106 -107z"/>
<path d="M526 740 c-88 -89 -97 -102 -85 -117 24 -29 190 -193 196 -193 3 0
52 46 109 103 l103 103 -102 102 c-56 56 -107 102 -112 102 -6 0 -54 -45 -109
-100z"/>
<path d="M4800 315 l-104 -105 105 -105 105 -105 107 106 108 107 -103 103
c-57 57 -105 104 -108 104 -3 0 -52 -47 -110 -105z"/>
</g>
</svg>
